<svg xmlns="http://www.w3.org/2000/svg" xmlns:xlink="http://www.w3.org/1999/xlink" width="128.28" height="195.139" viewBox="0 0 128.28 195.139"><defs><linearGradient id="a" x1="0.5" x2="0.5" y2="1" gradientUnits="objectBoundingBox"><stop offset="0" stop-color="#ff8443"/><stop offset="0.51" stop-color="#ffb32f"/><stop offset="1" stop-color="#ffe52c"/></linearGradient></defs><g transform="translate(-4655 -2899.332)"><rect width="5" height="59" transform="translate(4715.192 2927.971)" fill="#ff8443"/><path d="M15.6,0,31.2,28.639H0Z" transform="translate(4702.093 2899.332)" fill="#ff8443"/><g transform="translate(4655 2902.153)"><path d="M213.233,104.39c-2.836-7.556-5.921-13.863-9.013-25.576-2.246-8.519-6.185-16.453-11.88-22.553,5.385-4.791,11.655-10.939,16-17,12.354-17.265,6.278-45.606-4.118-37.983-11.531,8.463-24.071,31.3-30.559,44.241a39.905,39.905,0,0,0-17.141,0c-6.488-12.939-19.029-35.778-30.567-44.241-10.4-7.623-16.472,20.719-4.118,37.983,4.343,6.064,10.613,12.213,16.006,17-5.7,6.1-9.642,14.033-11.888,22.553-3.092,11.712-6.177,18.019-9.013,25.576-8.493,12.259-17.762,35.68-15.7,48.291,4.825,29.552,29.728,39.637,63.854,39.637s59.021-10.086,63.846-39.637C231,140.069,221.725,116.648,213.233,104.39Z" transform="translate(-100.946 0.001)" fill="url(#a)"/></g><text transform="translate(4688.871 3003.49)" fill="#fff" font-size="20" font-family="SourceHanSansJP-Bold, Source Han Sans JP" font-weight="700"><tspan x="0" y="0">TOPへ</tspan></text></g></svg>